{"title":"Buried.PL.BRRip.XviD-RLF","uid":6292011,"size":741980326,"categoryP":"video","categoryS":"movies","magnet":"?xt=urn:btih:5b80e9b10748778d66ef48666740fb2973ce610f&amp;dn=Buried.PL.BRRip.XviD-RLF&amp;tr=udp%3A%2F%2Ftracker.openbittorrent.com%3A80&amp;tr=udp%3A%2F%2Fopen.demonii.com%3A1337&amp;tr=udp%3A%2F%2Ftracker.coppersurfer.tk%3A6969&amp;tr=udp%3A%2F%2Fexodus.desync.com%3A6969","seeders":0,"leechers":0,"uploader":"rlf-rls","files":-1,"time":1301853666,"description":"Buried.PL.BRRip.XviD-RLF\n\nINFO:\n\nComplete name : rlf-buired.avi\nFormat : AVI\nFormat/Info : Audio Video Interleave\nFile size : 700 MiB\nDuration : 1h 31mn\nOverall bit rate : 1 069 Kbps\nLanguage : Polish\nEncoder : Ralf\n\nVideo:\n\nFormat : MPEG-4 Visual\nFormat profile : Advanced Simple@L5\nFormat settings, BVOP : 2\nFormat settings, QPel : No\nFormat settings, GMC : No warppoints\nFormat settings, Matrix : H.263\nMuxing mode : Packed bitstream\nCodec ID/Hint : XviD\nDuration : 1h 31mn\nBit rate : 931 Kbps\nWidth : 680 pixels\nHeight : 306 pixels\nDisplay aspect ratio : 2.222\nFrame rate : 25.000 fps\nColor space : YUV\nChroma subsampling : 4:2:0\nBit depth : 8 bits\nScan type : Progressive\nBits/(Pixel*Frame) : 0.179\nStream size : 610 MiB (87%)\nWriting library : XviD 1.2.1 \n\nAudio:\n\nFormat : MPEG Audio\nCodec ID/Hint : MP3\nDuration : 1h 31mn\nBit rate : 128 Kbps\nChannel(s) : 2 channels\nSampling rate : 48.0 KHz\nStream size : 83.8 MiB (12%)\nAlignment : Split accross interleaves\nInterleave, duration : 40 ms (1.00 video frame)\nInterleave, preload duration : 500 ms\n\nMore Info:\n &lt;a href=&quot;\nhttp://www.imdb.com/title/tt1462758/&quot; rel=&quot;nofollow&quot; target=&quot;_NEW&quot;&gt;\nhttp://www.imdb.com/title/tt1462758/&lt;/a&gt; &lt;a href=&quot;\nhttp://www.filmweb.pl/film/Pogrzebany-2010-531431&quot; rel=&quot;nofollow&quot; target=&quot;_NEW&quot;&gt;\nhttp://www.filmweb.pl/film/Pogrzebany-2010-531431&lt;/a&gt;\n                           \nSOURCE:\n\nViSiON 720p / PSiG (THX)\n\n\nCAST:\n\nRyan Reynolds ... Paul Conroy \nJosÃƒÂ© Luis GarcÃƒÂ­a PÃƒÂ©rez ... Jabir (voice) \nRobert Paterson ... Dan Brenner (voice) \nStephen Tobolowsky ... Alan Davenport (voice) \nSamantha Mathis ... Linda Conroy (voice)\n\nPILOT:\n\nPaul (Ryan Reynolds) jest Amerykaninem pracujacym w Iraku. Po ataku przez grupe Irakijczykow budzi sie pogrzebany zywcem w trumnie. Ma przy sobie tylko zapalniczke i komorke. Prowadzi wyscig z czasem, aby uniknac smierci. \n\nPaul is a U.S. contractor working in Iraq. After an attack by a group of Iraqis he wakes to find he is buried alive inside a coffin. With only a lighter and a cell phone it's a race against time to escape this claustrophobic death trap.\n\nSCREENS:\n &lt;a href=&quot;\nhttp://www.leetleech.org/images/72866441212507340056.png&quot; rel=&quot;nofollow&quot; target=&quot;_NEW&quot;&gt;\nhttp://www.leetleech.org/images/72866441212507340056.png&lt;/a&gt;\n &lt;a href=&quot;\nhttp://www.leetleech.org/images/87434608017487292207.png&quot; rel=&quot;nofollow&quot; target=&quot;_NEW&quot;&gt;\nhttp://www.leetleech.org/images/87434608017487292207.png&lt;/a&gt;\n &lt;a href=&quot;\nhttp://www.leetleech.org/images/39330821657555240764.png&quot; rel=&quot;nofollow&quot; target=&quot;_NEW&quot;&gt;\nhttp://www.leetleech.org/images/39330821657555240764.png&lt;/a&gt;\n &lt;a href=&quot;\nhttp://www.leetleech.org/images/92985954009477114120.png&quot; rel=&quot;nofollow&quot; target=&quot;_NEW&quot;&gt;\nhttp://www.leetleech.org/images/92985954009477114120.png&lt;/a&gt;","torrent":{"xt":"urn:btih:5b80e9b10748778d66ef48666740fb2973ce610f","amp;dn":"Buried.PL.BRRip.XviD-RLF","amp;tr":["udp%3A%2F%2Ftracker.openbittorrent.com%3A80","udp%3A%2F%2Fopen.demonii.com%3A1337","udp%3A%2F%2Ftracker.coppersurfer.tk%3A6969","udp%3A%2F%2Fexodus.desync.com%3A6969"],"infoHash":"5b80e9b10748778d66ef48666740fb2973ce610f","infoHashBuffer":{"type":"Buffer","data":[91,128,233,177,7,72,119,141,102,239,72,102,103,64,251,41,115,206,97,15]},"announce":[],"urlList":[]}}